<mxfile host="app.diagrams.net" agent="Mozilla/5.0 (Windows NT 10.0; Win64; x64) AppleWebKit/537.36 (KHTML, like Gecko) Chrome/122.0.0.0 Safari/537.36" version="24.8.4">
  <diagram id="DzLsgyPNC4y2OptwUkxq" name="Page-1">
    <mxGraphModel dx="989" dy="592" grid="1" gridSize="10" guides="1" tooltips="1" connect="1" arrows="1" fold="1" page="1" pageScale="1" pageWidth="850" pageHeight="1100" math="0" shadow="0">
      <root>
        <mxCell id="0" />
        <mxCell id="1" parent="0" />
        <mxCell id="jF6Baknl4ynv4NxAoaoa-1" style="edgeStyle=orthogonalEdgeStyle;rounded=0;orthogonalLoop=1;jettySize=auto;html=1;exitX=0.5;exitY=1;exitDx=0;exitDy=0;entryX=0.5;entryY=0;entryDx=0;entryDy=0;" edge="1" parent="1" source="jF6Baknl4ynv4NxAoaoa-3" target="jF6Baknl4ynv4NxAoaoa-8">
          <mxGeometry relative="1" as="geometry" />
        </mxCell>
        <mxCell id="jF6Baknl4ynv4NxAoaoa-2" value="&quot;start&quot;" style="edgeLabel;html=1;align=center;verticalAlign=middle;resizable=0;points=[];" vertex="1" connectable="0" parent="jF6Baknl4ynv4NxAoaoa-1">
          <mxGeometry x="-0.12" y="1" relative="1" as="geometry">
            <mxPoint as="offset" />
          </mxGeometry>
        </mxCell>
        <mxCell id="jF6Baknl4ynv4NxAoaoa-3" value="/cmd" style="rhombus;whiteSpace=wrap;html=1;fillColor=#e1d5e7;strokeColor=#9673a6;" vertex="1" parent="1">
          <mxGeometry x="410" y="230" width="80" height="30" as="geometry" />
        </mxCell>
        <mxCell id="jF6Baknl4ynv4NxAoaoa-4" style="edgeStyle=orthogonalEdgeStyle;rounded=0;orthogonalLoop=1;jettySize=auto;html=1;entryX=0.5;entryY=0;entryDx=0;entryDy=0;" edge="1" parent="1" source="jF6Baknl4ynv4NxAoaoa-5" target="jF6Baknl4ynv4NxAoaoa-3">
          <mxGeometry relative="1" as="geometry" />
        </mxCell>
        <mxCell id="jF6Baknl4ynv4NxAoaoa-5" value="&lt;b&gt;&lt;u&gt;Idle&lt;/u&gt;&lt;/b&gt;" style="swimlane;fontStyle=0;childLayout=stackLayout;horizontal=1;startSize=30;horizontalStack=0;resizeParent=1;resizeParentMax=0;resizeLast=0;collapsible=1;marginBottom=0;whiteSpace=wrap;html=1;fillColor=#dae8fc;strokeColor=#6c8ebf;" vertex="1" parent="1">
          <mxGeometry x="380" y="120" width="140" height="90" as="geometry" />
        </mxCell>
        <mxCell id="jF6Baknl4ynv4NxAoaoa-6" value="state = &quot;idle&quot;" style="text;strokeColor=none;fillColor=none;align=left;verticalAlign=middle;spacingLeft=4;spacingRight=4;overflow=hidden;points=[[0,0.5],[1,0.5]];portConstraint=eastwest;rotatable=0;whiteSpace=wrap;html=1;" vertex="1" parent="jF6Baknl4ynv4NxAoaoa-5">
          <mxGeometry y="30" width="140" height="30" as="geometry" />
        </mxCell>
        <mxCell id="jF6Baknl4ynv4NxAoaoa-7" value="velocity = [0,0]" style="text;strokeColor=none;fillColor=none;align=left;verticalAlign=middle;spacingLeft=4;spacingRight=4;overflow=hidden;points=[[0,0.5],[1,0.5]];portConstraint=eastwest;rotatable=0;whiteSpace=wrap;html=1;" vertex="1" parent="jF6Baknl4ynv4NxAoaoa-5">
          <mxGeometry y="60" width="140" height="30" as="geometry" />
        </mxCell>
        <mxCell id="jF6Baknl4ynv4NxAoaoa-8" value="&lt;b&gt;&lt;u&gt;Searching&lt;/u&gt;&lt;/b&gt;" style="swimlane;fontStyle=0;childLayout=stackLayout;horizontal=1;startSize=30;horizontalStack=0;resizeParent=1;resizeParentMax=0;resizeLast=0;collapsible=1;marginBottom=0;whiteSpace=wrap;html=1;fillColor=#dae8fc;strokeColor=#6c8ebf;" vertex="1" parent="1">
          <mxGeometry x="390" y="310" width="120" height="90" as="geometry" />
        </mxCell>
        <mxCell id="jF6Baknl4ynv4NxAoaoa-9" value="state = &quot;searching&quot;" style="text;strokeColor=none;fillColor=none;align=left;verticalAlign=middle;spacingLeft=4;spacingRight=4;overflow=hidden;points=[[0,0.5],[1,0.5]];portConstraint=eastwest;rotatable=0;whiteSpace=wrap;html=1;" vertex="1" parent="jF6Baknl4ynv4NxAoaoa-8">
          <mxGeometry y="30" width="120" height="30" as="geometry" />
        </mxCell>
        <mxCell id="jF6Baknl4ynv4NxAoaoa-10" value="velocity = [v,0]" style="text;strokeColor=none;fillColor=none;align=left;verticalAlign=middle;spacingLeft=4;spacingRight=4;overflow=hidden;points=[[0,0.5],[1,0.5]];portConstraint=eastwest;rotatable=0;whiteSpace=wrap;html=1;" vertex="1" parent="jF6Baknl4ynv4NxAoaoa-8">
          <mxGeometry y="60" width="120" height="30" as="geometry" />
        </mxCell>
        <mxCell id="jF6Baknl4ynv4NxAoaoa-11" style="edgeStyle=orthogonalEdgeStyle;rounded=0;orthogonalLoop=1;jettySize=auto;html=1;exitX=1;exitY=0.5;exitDx=0;exitDy=0;entryX=0;entryY=0.5;entryDx=0;entryDy=0;" edge="1" parent="1" source="jF6Baknl4ynv4NxAoaoa-12" target="jF6Baknl4ynv4NxAoaoa-15">
          <mxGeometry relative="1" as="geometry" />
        </mxCell>
        <mxCell id="jF6Baknl4ynv4NxAoaoa-12" value="Request Image" style="rounded=1;whiteSpace=wrap;html=1;" vertex="1" parent="1">
          <mxGeometry x="570" y="340" width="60" height="30" as="geometry" />
        </mxCell>
        <mxCell id="jF6Baknl4ynv4NxAoaoa-13" style="edgeStyle=orthogonalEdgeStyle;rounded=0;orthogonalLoop=1;jettySize=auto;html=1;exitX=1;exitY=0.5;exitDx=0;exitDy=0;entryX=0;entryY=0.5;entryDx=0;entryDy=0;" edge="1" parent="1" source="jF6Baknl4ynv4NxAoaoa-9" target="jF6Baknl4ynv4NxAoaoa-12">
          <mxGeometry relative="1" as="geometry" />
        </mxCell>
        <mxCell id="jF6Baknl4ynv4NxAoaoa-14" style="edgeStyle=orthogonalEdgeStyle;rounded=0;orthogonalLoop=1;jettySize=auto;html=1;exitX=0.5;exitY=1;exitDx=0;exitDy=0;entryX=0.5;entryY=0;entryDx=0;entryDy=0;" edge="1" parent="1" source="jF6Baknl4ynv4NxAoaoa-15" target="jF6Baknl4ynv4NxAoaoa-20">
          <mxGeometry relative="1" as="geometry" />
        </mxCell>
        <mxCell id="jF6Baknl4ynv4NxAoaoa-15" value="Inference" style="rounded=1;whiteSpace=wrap;html=1;" vertex="1" parent="1">
          <mxGeometry x="662.5" y="340" width="60" height="30" as="geometry" />
        </mxCell>
        <mxCell id="jF6Baknl4ynv4NxAoaoa-16" style="edgeStyle=orthogonalEdgeStyle;rounded=0;orthogonalLoop=1;jettySize=auto;html=1;exitX=0;exitY=0.5;exitDx=0;exitDy=0;entryX=0.5;entryY=1;entryDx=0;entryDy=0;" edge="1" parent="1" source="jF6Baknl4ynv4NxAoaoa-20" target="jF6Baknl4ynv4NxAoaoa-12">
          <mxGeometry relative="1" as="geometry" />
        </mxCell>
        <mxCell id="jF6Baknl4ynv4NxAoaoa-17" value="No" style="edgeLabel;html=1;align=center;verticalAlign=middle;resizable=0;points=[];" vertex="1" connectable="0" parent="jF6Baknl4ynv4NxAoaoa-16">
          <mxGeometry x="-0.4914" y="-1" relative="1" as="geometry">
            <mxPoint x="-1" y="-14" as="offset" />
          </mxGeometry>
        </mxCell>
        <mxCell id="jF6Baknl4ynv4NxAoaoa-18" style="edgeStyle=orthogonalEdgeStyle;rounded=0;orthogonalLoop=1;jettySize=auto;html=1;exitX=0.5;exitY=1;exitDx=0;exitDy=0;entryX=1;entryY=0.5;entryDx=0;entryDy=0;" edge="1" parent="1" source="jF6Baknl4ynv4NxAoaoa-20" target="jF6Baknl4ynv4NxAoaoa-23">
          <mxGeometry relative="1" as="geometry" />
        </mxCell>
        <mxCell id="jF6Baknl4ynv4NxAoaoa-19" value="Yes" style="edgeLabel;html=1;align=center;verticalAlign=middle;resizable=0;points=[];" vertex="1" connectable="0" parent="jF6Baknl4ynv4NxAoaoa-18">
          <mxGeometry x="-0.7893" y="1" relative="1" as="geometry">
            <mxPoint x="-1" y="-8" as="offset" />
          </mxGeometry>
        </mxCell>
        <mxCell id="jF6Baknl4ynv4NxAoaoa-20" value="Valid Keypoints?" style="rhombus;whiteSpace=wrap;html=1;fillColor=#e1d5e7;strokeColor=#9673a6;" vertex="1" parent="1">
          <mxGeometry x="620" y="400" width="145" height="50" as="geometry" />
        </mxCell>
        <mxCell id="jF6Baknl4ynv4NxAoaoa-21" style="edgeStyle=orthogonalEdgeStyle;rounded=0;orthogonalLoop=1;jettySize=auto;html=1;" edge="1" parent="1" source="jF6Baknl4ynv4NxAoaoa-22" target="jF6Baknl4ynv4NxAoaoa-26">
          <mxGeometry relative="1" as="geometry" />
        </mxCell>
        <mxCell id="jF6Baknl4ynv4NxAoaoa-22" value="&lt;b&gt;&lt;u&gt;Locating&lt;/u&gt;&lt;/b&gt;" style="swimlane;fontStyle=0;childLayout=stackLayout;horizontal=1;startSize=30;horizontalStack=0;resizeParent=1;resizeParentMax=0;resizeLast=0;collapsible=1;marginBottom=0;whiteSpace=wrap;html=1;fillColor=#dae8fc;strokeColor=#6c8ebf;" vertex="1" parent="1">
          <mxGeometry x="400" y="435" width="100" height="90" as="geometry" />
        </mxCell>
        <mxCell id="jF6Baknl4ynv4NxAoaoa-23" value="state = &quot;locating&quot;" style="text;strokeColor=none;fillColor=none;align=left;verticalAlign=middle;spacingLeft=4;spacingRight=4;overflow=hidden;points=[[0,0.5],[1,0.5]];portConstraint=eastwest;rotatable=0;whiteSpace=wrap;html=1;" vertex="1" parent="jF6Baknl4ynv4NxAoaoa-22">
          <mxGeometry y="30" width="100" height="30" as="geometry" />
        </mxCell>
        <mxCell id="jF6Baknl4ynv4NxAoaoa-24" value="velocity = [0,0]" style="text;strokeColor=none;fillColor=none;align=left;verticalAlign=middle;spacingLeft=4;spacingRight=4;overflow=hidden;points=[[0,0.5],[1,0.5]];portConstraint=eastwest;rotatable=0;whiteSpace=wrap;html=1;" vertex="1" parent="jF6Baknl4ynv4NxAoaoa-22">
          <mxGeometry y="60" width="100" height="30" as="geometry" />
        </mxCell>
        <mxCell id="jF6Baknl4ynv4NxAoaoa-25" style="edgeStyle=orthogonalEdgeStyle;rounded=0;orthogonalLoop=1;jettySize=auto;html=1;exitX=1;exitY=0.5;exitDx=0;exitDy=0;entryX=0;entryY=0.5;entryDx=0;entryDy=0;" edge="1" parent="1" source="jF6Baknl4ynv4NxAoaoa-26" target="jF6Baknl4ynv4NxAoaoa-28">
          <mxGeometry relative="1" as="geometry" />
        </mxCell>
        <mxCell id="jF6Baknl4ynv4NxAoaoa-26" value="Request Image" style="rounded=1;whiteSpace=wrap;html=1;" vertex="1" parent="1">
          <mxGeometry x="421.25" y="560" width="57.5" height="30" as="geometry" />
        </mxCell>
        <mxCell id="jF6Baknl4ynv4NxAoaoa-27" style="edgeStyle=orthogonalEdgeStyle;rounded=0;orthogonalLoop=1;jettySize=auto;html=1;exitX=0.5;exitY=1;exitDx=0;exitDy=0;entryX=0.5;entryY=0;entryDx=0;entryDy=0;" edge="1" parent="1" source="jF6Baknl4ynv4NxAoaoa-28" target="jF6Baknl4ynv4NxAoaoa-30">
          <mxGeometry relative="1" as="geometry" />
        </mxCell>
        <mxCell id="jF6Baknl4ynv4NxAoaoa-28" value="Inference" style="rounded=1;whiteSpace=wrap;html=1;" vertex="1" parent="1">
          <mxGeometry x="550" y="560" width="70" height="30" as="geometry" />
        </mxCell>
        <mxCell id="jF6Baknl4ynv4NxAoaoa-29" style="edgeStyle=orthogonalEdgeStyle;rounded=0;orthogonalLoop=1;jettySize=auto;html=1;exitX=0;exitY=0.5;exitDx=0;exitDy=0;entryX=1;entryY=0.5;entryDx=0;entryDy=0;" edge="1" parent="1" source="jF6Baknl4ynv4NxAoaoa-30" target="jF6Baknl4ynv4NxAoaoa-38">
          <mxGeometry relative="1" as="geometry" />
        </mxCell>
        <mxCell id="jF6Baknl4ynv4NxAoaoa-30" value="Homography" style="rounded=1;whiteSpace=wrap;html=1;" vertex="1" parent="1">
          <mxGeometry x="540" y="705" width="90" height="30" as="geometry" />
        </mxCell>
        <mxCell id="jF6Baknl4ynv4NxAoaoa-31" style="edgeStyle=orthogonalEdgeStyle;rounded=0;orthogonalLoop=1;jettySize=auto;html=1;exitX=0.5;exitY=0;exitDx=0;exitDy=0;entryX=0.5;entryY=1;entryDx=0;entryDy=0;" edge="1" parent="1" source="jF6Baknl4ynv4NxAoaoa-32" target="jF6Baknl4ynv4NxAoaoa-26">
          <mxGeometry relative="1" as="geometry" />
        </mxCell>
        <mxCell id="jF6Baknl4ynv4NxAoaoa-32" value="Move X" style="rounded=1;whiteSpace=wrap;html=1;" vertex="1" parent="1">
          <mxGeometry x="417.5" y="620" width="65" height="25" as="geometry" />
        </mxCell>
        <mxCell id="jF6Baknl4ynv4NxAoaoa-33" style="edgeStyle=orthogonalEdgeStyle;rounded=0;orthogonalLoop=1;jettySize=auto;html=1;exitX=0.5;exitY=1;exitDx=0;exitDy=0;" edge="1" parent="1" source="jF6Baknl4ynv4NxAoaoa-38">
          <mxGeometry relative="1" as="geometry">
            <mxPoint x="450.3103448275863" y="745" as="targetPoint" />
          </mxGeometry>
        </mxCell>
        <mxCell id="jF6Baknl4ynv4NxAoaoa-34" style="edgeStyle=orthogonalEdgeStyle;rounded=0;orthogonalLoop=1;jettySize=auto;html=1;exitX=0.5;exitY=0;exitDx=0;exitDy=0;entryX=0.5;entryY=1;entryDx=0;entryDy=0;" edge="1" parent="1" source="jF6Baknl4ynv4NxAoaoa-38" target="jF6Baknl4ynv4NxAoaoa-32">
          <mxGeometry relative="1" as="geometry" />
        </mxCell>
        <mxCell id="jF6Baknl4ynv4NxAoaoa-35" value="No" style="edgeLabel;html=1;align=center;verticalAlign=middle;resizable=0;points=[];" vertex="1" connectable="0" parent="jF6Baknl4ynv4NxAoaoa-34">
          <mxGeometry x="-0.2745" y="2" relative="1" as="geometry">
            <mxPoint as="offset" />
          </mxGeometry>
        </mxCell>
        <mxCell id="jF6Baknl4ynv4NxAoaoa-36" style="edgeStyle=orthogonalEdgeStyle;rounded=0;orthogonalLoop=1;jettySize=auto;html=1;exitX=0;exitY=0.5;exitDx=0;exitDy=0;entryX=1;entryY=0.5;entryDx=0;entryDy=0;" edge="1" parent="1" source="jF6Baknl4ynv4NxAoaoa-38" target="jF6Baknl4ynv4NxAoaoa-40">
          <mxGeometry relative="1" as="geometry" />
        </mxCell>
        <mxCell id="jF6Baknl4ynv4NxAoaoa-37" value="Yes" style="edgeLabel;html=1;align=center;verticalAlign=middle;resizable=0;points=[];" vertex="1" connectable="0" parent="jF6Baknl4ynv4NxAoaoa-36">
          <mxGeometry x="-0.0571" y="1" relative="1" as="geometry">
            <mxPoint as="offset" />
          </mxGeometry>
        </mxCell>
        <mxCell id="jF6Baknl4ynv4NxAoaoa-38" value="Aligned on Y?" style="rhombus;whiteSpace=wrap;html=1;fillColor=#e1d5e7;strokeColor=#9673a6;" vertex="1" parent="1">
          <mxGeometry x="390" y="690" width="120" height="60" as="geometry" />
        </mxCell>
        <mxCell id="jF6Baknl4ynv4NxAoaoa-39" style="edgeStyle=orthogonalEdgeStyle;rounded=0;orthogonalLoop=1;jettySize=auto;html=1;exitX=0.5;exitY=0;exitDx=0;exitDy=0;entryX=0.5;entryY=1;entryDx=0;entryDy=0;" edge="1" parent="1" source="jF6Baknl4ynv4NxAoaoa-40" target="jF6Baknl4ynv4NxAoaoa-42">
          <mxGeometry relative="1" as="geometry" />
        </mxCell>
        <mxCell id="jF6Baknl4ynv4NxAoaoa-40" value="Move Y Axis" style="rounded=1;whiteSpace=wrap;html=1;fillColor=#d5e8d4;strokeColor=#82b366;" vertex="1" parent="1">
          <mxGeometry x="260" y="705" width="80" height="30" as="geometry" />
        </mxCell>
        <mxCell id="jF6Baknl4ynv4NxAoaoa-46" style="edgeStyle=orthogonalEdgeStyle;rounded=0;orthogonalLoop=1;jettySize=auto;html=1;exitX=0.5;exitY=0;exitDx=0;exitDy=0;" edge="1" parent="1" source="jF6Baknl4ynv4NxAoaoa-42" target="jF6Baknl4ynv4NxAoaoa-43">
          <mxGeometry relative="1" as="geometry" />
        </mxCell>
        <mxCell id="jF6Baknl4ynv4NxAoaoa-42" value="Remove Weed" style="rounded=1;whiteSpace=wrap;html=1;fillColor=#d5e8d4;strokeColor=#82b366;" vertex="1" parent="1">
          <mxGeometry x="255" y="640" width="90" height="30" as="geometry" />
        </mxCell>
        <mxCell id="jF6Baknl4ynv4NxAoaoa-48" style="edgeStyle=orthogonalEdgeStyle;rounded=0;orthogonalLoop=1;jettySize=auto;html=1;exitX=0.5;exitY=0;exitDx=0;exitDy=0;entryX=0.5;entryY=1;entryDx=0;entryDy=0;" edge="1" parent="1" source="jF6Baknl4ynv4NxAoaoa-43" target="jF6Baknl4ynv4NxAoaoa-47">
          <mxGeometry relative="1" as="geometry" />
        </mxCell>
        <mxCell id="jF6Baknl4ynv4NxAoaoa-43" value="&lt;b&gt;&lt;u&gt;Waiting&lt;/u&gt;&lt;/b&gt;" style="swimlane;fontStyle=0;childLayout=stackLayout;horizontal=1;startSize=30;horizontalStack=0;resizeParent=1;resizeParentMax=0;resizeLast=0;collapsible=1;marginBottom=0;whiteSpace=wrap;html=1;fillColor=#dae8fc;strokeColor=#6c8ebf;" vertex="1" parent="1">
          <mxGeometry x="240" y="520" width="120" height="90" as="geometry" />
        </mxCell>
        <mxCell id="jF6Baknl4ynv4NxAoaoa-44" value="state = &quot;waiting&quot;" style="text;strokeColor=none;fillColor=none;align=left;verticalAlign=middle;spacingLeft=4;spacingRight=4;overflow=hidden;points=[[0,0.5],[1,0.5]];portConstraint=eastwest;rotatable=0;whiteSpace=wrap;html=1;" vertex="1" parent="jF6Baknl4ynv4NxAoaoa-43">
          <mxGeometry y="30" width="120" height="30" as="geometry" />
        </mxCell>
        <mxCell id="jF6Baknl4ynv4NxAoaoa-45" value="velocity = [o,0]" style="text;strokeColor=none;fillColor=none;align=left;verticalAlign=middle;spacingLeft=4;spacingRight=4;overflow=hidden;points=[[0,0.5],[1,0.5]];portConstraint=eastwest;rotatable=0;whiteSpace=wrap;html=1;" vertex="1" parent="jF6Baknl4ynv4NxAoaoa-43">
          <mxGeometry y="60" width="120" height="30" as="geometry" />
        </mxCell>
        <mxCell id="jF6Baknl4ynv4NxAoaoa-49" style="edgeStyle=orthogonalEdgeStyle;rounded=0;orthogonalLoop=1;jettySize=auto;html=1;exitX=0.5;exitY=0;exitDx=0;exitDy=0;entryX=0;entryY=0.5;entryDx=0;entryDy=0;" edge="1" parent="1" source="jF6Baknl4ynv4NxAoaoa-47" target="jF6Baknl4ynv4NxAoaoa-9">
          <mxGeometry relative="1" as="geometry" />
        </mxCell>
        <mxCell id="jF6Baknl4ynv4NxAoaoa-50" value="Yes" style="edgeLabel;html=1;align=center;verticalAlign=middle;resizable=0;points=[];" vertex="1" connectable="0" parent="jF6Baknl4ynv4NxAoaoa-49">
          <mxGeometry x="-0.507" relative="1" as="geometry">
            <mxPoint as="offset" />
          </mxGeometry>
        </mxCell>
        <mxCell id="jF6Baknl4ynv4NxAoaoa-51" style="edgeStyle=orthogonalEdgeStyle;rounded=0;orthogonalLoop=1;jettySize=auto;html=1;exitX=0;exitY=0.5;exitDx=0;exitDy=0;entryX=0;entryY=0.5;entryDx=0;entryDy=0;" edge="1" parent="1" source="jF6Baknl4ynv4NxAoaoa-47" target="jF6Baknl4ynv4NxAoaoa-6">
          <mxGeometry relative="1" as="geometry" />
        </mxCell>
        <mxCell id="jF6Baknl4ynv4NxAoaoa-52" value="No" style="edgeLabel;html=1;align=center;verticalAlign=middle;resizable=0;points=[];" vertex="1" connectable="0" parent="jF6Baknl4ynv4NxAoaoa-51">
          <mxGeometry x="-0.3876" relative="1" as="geometry">
            <mxPoint as="offset" />
          </mxGeometry>
        </mxCell>
        <mxCell id="jF6Baknl4ynv4NxAoaoa-47" value="State returned?" style="rhombus;whiteSpace=wrap;html=1;fillColor=#e1d5e7;strokeColor=#9673a6;" vertex="1" parent="1">
          <mxGeometry x="243.75" y="430" width="112.5" height="50" as="geometry" />
        </mxCell>
        <mxCell id="jF6Baknl4ynv4NxAoaoa-53" value="Request Image" style="rounded=1;whiteSpace=wrap;html=1;fillColor=#d5e8d4;strokeColor=#82b366;" vertex="1" parent="1">
          <mxGeometry x="570" y="340" width="60" height="30" as="geometry" />
        </mxCell>
        <mxCell id="jF6Baknl4ynv4NxAoaoa-54" value="Inference" style="rounded=1;whiteSpace=wrap;html=1;fillColor=#d5e8d4;strokeColor=#82b366;" vertex="1" parent="1">
          <mxGeometry x="662.5" y="340" width="60" height="30" as="geometry" />
        </mxCell>
        <mxCell id="jF6Baknl4ynv4NxAoaoa-55" value="Inference" style="rounded=1;whiteSpace=wrap;html=1;fillColor=#d5e8d4;strokeColor=#82b366;" vertex="1" parent="1">
          <mxGeometry x="550" y="560" width="70" height="30" as="geometry" />
        </mxCell>
        <mxCell id="jF6Baknl4ynv4NxAoaoa-56" value="Request Image" style="rounded=1;whiteSpace=wrap;html=1;fillColor=#d5e8d4;strokeColor=#82b366;" vertex="1" parent="1">
          <mxGeometry x="421.25" y="560" width="57.5" height="30" as="geometry" />
        </mxCell>
        <mxCell id="jF6Baknl4ynv4NxAoaoa-57" value="Move X" style="rounded=1;whiteSpace=wrap;html=1;fillColor=#d5e8d4;strokeColor=#82b366;" vertex="1" parent="1">
          <mxGeometry x="417.5" y="620" width="65" height="25" as="geometry" />
        </mxCell>
        <mxCell id="jF6Baknl4ynv4NxAoaoa-58" value="Homography" style="rounded=1;whiteSpace=wrap;html=1;fillColor=#d5e8d4;strokeColor=#82b366;" vertex="1" parent="1">
          <mxGeometry x="540" y="705" width="90" height="30" as="geometry" />
        </mxCell>
      </root>
    </mxGraphModel>
  </diagram>
</mxfile>
